<?xml version="1.0" encoding="utf-8"?>
<!-- Generator: Adobe Illustrator 20.0.0, SVG Export Plug-In . SVG Version: 6.00 Build 0)  -->
<svg version="1.1" id="Layer_1" xmlns="http://www.w3.org/2000/svg" xmlns:xlink="http://www.w3.org/1999/xlink" x="0px" y="0px"
	 viewBox="0 0 172.9 34.9" style="enable-background:new 0 0 172.9 34.9;" xml:space="preserve">
<style type="text/css">
	.black{fill:#414042;}
	.orange{fill:#F26522;}
</style>
<path class="black" d="M4.8,7.9c0-0.2,0.1-0.3,0.3-0.3h3.8c0.2,0,0.3,0.1,0.3,0.3v7.6c0,0.1,0.1,0.2,0.2,0.2H16c0.1,0,0.2-0.1,0.2-0.2
	V7.9c0-0.2,0.1-0.3,0.3-0.3h3.8c0.2,0,0.3,0.1,0.3,0.3v19.6c0,0.2-0.1,0.3-0.3,0.3h-3.8c-0.2,0-0.3-0.1-0.3-0.3v-7.8
	c0-0.1-0.1-0.2-0.2-0.2H9.4c-0.1,0-0.2,0.1-0.2,0.2v7.8c0,0.2-0.1,0.3-0.3,0.3H5.1c-0.2,0-0.3-0.1-0.3-0.3V7.9L4.8,7.9z"/>
<path class="black" d="M31.8,27.8c-0.2,0-0.3-0.1-0.3-0.3V11.7c0-0.1-0.1-0.2-0.2-0.2h-5.1c-0.2,0-0.3-0.1-0.3-0.3V7.9
	c0-0.2,0.1-0.3,0.3-0.3h15c0.2,0,0.3,0.1,0.3,0.3v3.3c0,0.2-0.1,0.3-0.3,0.3h-5.1c-0.1,0-0.2,0.1-0.2,0.2v15.8
	c0,0.2-0.1,0.3-0.3,0.3H31.8L31.8,27.8z"/>
<path class="black" d="M46.9,7.9c0-0.2,0.1-0.3,0.3-0.3h3.5c0.2,0,0.4,0.1,0.5,0.3l5.1,11.5h0.1l5-11.5c0.1-0.2,0.2-0.3,0.5-0.3h3.5
	c0.2,0,0.3,0.1,0.3,0.3v19.6c0,0.2-0.1,0.3-0.3,0.3H62c-0.2,0-0.3-0.1-0.3-0.3V16.2h-0.1l-3.7,8.5c-0.1,0.3-0.3,0.4-0.6,0.4h-2.1
	c-0.3,0-0.4-0.1-0.6-0.4L51,16.2h-0.1v11.4c0,0.2-0.1,0.3-0.3,0.3h-3.4c-0.2,0-0.3-0.1-0.3-0.3V7.9L46.9,7.9z"/>
<path class="black" d="M72.5,7.9c0-0.2,0.1-0.3,0.3-0.3h3.8c0.2,0,0.3,0.1,0.3,0.3v15.8c0,0.1,0.1,0.2,0.2,0.2H86
	c0.2,0,0.3,0.1,0.3,0.3v3.3c0,0.2-0.1,0.3-0.3,0.3H72.8c-0.2,0-0.3-0.1-0.3-0.3V7.9L72.5,7.9z"/>
<path class="orange" d="M92.1,30.3c-0.2,0-0.3-0.1-0.3-0.3V6.1c0-0.2,0.1-0.3,0.3-0.3h5.6c0.2,0,0.3,0.1,0.3,0.3v2.5
	c0,0.2-0.1,0.3-0.3,0.3h-2.1c-0.1,0-0.2,0.1-0.2,0.2v18c0,0.1,0.1,0.2,0.2,0.2h2.1c0.2,0,0.3,0.1,0.3,0.3V30c0,0.2-0.1,0.3-0.3,0.3
	H92.1L92.1,30.3z"/>
<path class="black" d="M104.2,23.4l3.2-0.6c0.2,0,0.3,0.1,0.4,0.2c0.4,1,1.1,1.7,2.3,1.7c1,0,1.8-0.5,2.1-1.4c0.2-0.5,0.2-1,0.2-2
	c0-1-0.1-1.5-0.2-2c-0.3-1-1.1-1.4-2.1-1.4c-1.1,0-1.8,0.6-2.1,1.2c-0.1,0.2-0.2,0.3-0.4,0.3h-3.2c-0.2,0-0.3-0.1-0.3-0.3V7.9
	c0-0.2,0.1-0.3,0.3-0.3h11.3c0.2,0,0.3,0.1,0.3,0.3v2.9c0,0.2-0.1,0.3-0.3,0.3h-7.8c-0.1,0-0.2,0.1-0.2,0.2v4h0.1c0.5-0.4,1.5-1,3-1
	c2.6,0,4.5,1.2,5.2,3.4c0.3,0.8,0.4,1.8,0.4,3.4c0,1.3-0.2,2.3-0.4,3.2c-0.8,2.5-3.1,3.8-6,3.8c-3.4,0-5.9-1.8-6.2-4.5
	C104,23.6,104,23.4,104.2,23.4L104.2,23.4z"/>
<path class="black" d="M129.6,24.7c1,0,1.8-0.4,2.1-1.4c0.2-0.5,0.2-1.1,0.2-5.6c0-4.4-0.1-5-0.2-5.6c-0.3-0.9-1-1.4-2.1-1.4
	c-1.1,0-1.8,0.4-2.1,1.4c-0.2,0.5-0.2,1.1-0.2,5.6c0,4.4,0.1,5,0.2,5.6C127.9,24.2,128.6,24.7,129.6,24.7L129.6,24.7z M123.1,17.7
	c0-4.5,0.1-5.4,0.4-6.3c0.8-2.6,2.9-4.1,6.1-4.1c3.2,0,5.3,1.5,6.1,4.1c0.3,0.9,0.4,1.8,0.4,6.3c0,4.5-0.1,5.4-0.4,6.3
	c-0.8,2.6-2.9,4.1-6.1,4.1c-3.2,0-5.3-1.5-6.1-4.1C123.2,23.1,123.1,22.2,123.1,17.7L123.1,17.7z"/>
<path class="black" d="M149.1,24.7c1,0,1.8-0.4,2.1-1.4c0.2-0.5,0.2-1.1,0.2-5.6c0-4.4-0.1-5-0.2-5.6c-0.3-0.9-1-1.4-2.1-1.4
	c-1.1,0-1.8,0.4-2.1,1.4c-0.2,0.5-0.2,1.1-0.2,5.6c0,4.4,0.1,5,0.2,5.6C147.4,24.2,148.1,24.7,149.1,24.7L149.1,24.7z M142.6,17.7
	c0-4.5,0.2-5.4,0.4-6.3c0.8-2.6,2.9-4.1,6.1-4.1c3.2,0,5.3,1.5,6.1,4.1c0.3,0.9,0.4,1.8,0.4,6.3c0,4.5-0.1,5.4-0.4,6.3
	c-0.8,2.6-2.9,4.1-6.1,4.1c-3.2,0-5.3-1.5-6.1-4.1C142.7,23.1,142.6,22.2,142.6,17.7L142.6,17.7z"/>
<path class="orange" d="M161.5,30.3c-0.2,0-0.3-0.1-0.3-0.3v-2.5c0-0.2,0.1-0.3,0.3-0.3h2.1c0.1,0,0.2-0.1,0.2-0.2v-18
	c0-0.1-0.1-0.2-0.2-0.2h-2.1c-0.2,0-0.3-0.1-0.3-0.3V6.1c0-0.2,0.1-0.3,0.3-0.3h5.6c0.2,0,0.3,0.1,0.3,0.3V30c0,0.2-0.1,0.3-0.3,0.3
	H161.5L161.5,30.3z"/>
</svg>
